<svg class="icon" style="width: 1em;height: 1em;vertical-align: middle;fill: currentColor;overflow: hidden;" viewBox="0 0 1024 1024" version="1.1" xmlns="http://www.w3.org/2000/svg" p-id="3191"><path d="M220.553846 211.101538c-6.301538-4.726154-15.753846-4.726154-20.48 0l-36.233846 42.535385 22.055385 18.904615 36.233846-42.535384c4.726154-4.726154 4.726154-12.603077-1.575385-18.904616zM264.664615 261.513846c4.726154-6.301538 4.726154-15.753846-3.150769-22.055384-6.301538-4.726154-15.753846-3.150769-20.48 1.575384l-37.809231 45.686154 23.63077 20.48 37.80923-45.686154z" fill="#474747" p-id="3192"></path><path d="M573.44 4.726154C551.384615 1.575385 529.329231 0 507.273846 0 226.855385 0 0 226.855385 0 507.273846 0 787.692308 226.855385 1014.547692 507.273846 1014.547692 787.692308 1014.547692 1014.547692 787.692308 1014.547692 507.273846c0-256.787692-192.196923-471.04-441.107692-502.547692z m-66.166154 992.492308c-269.390769 0-489.944615-218.978462-489.944615-489.944616C17.329231 237.883077 236.307692 17.329231 507.273846 17.329231c269.390769 0 489.944615 218.978462 489.944616 489.944615 0 269.390769-220.553846 489.944615-489.944616 489.944616z" fill="#474747" p-id="3193"></path><path d="M507.273846 37.809231C247.335385 37.809231 37.809231 247.335385 37.809231 507.273846S247.335385 976.738462 507.273846 976.738462 976.738462 767.212308 976.738462 507.273846 767.212308 37.809231 507.273846 37.809231z m-69.316923 23.630769h37.809231l33.083077 88.221538 33.083077-88.221538h37.80923v122.88h-25.206153V99.249231l-33.083077 86.646154h-26.781539l-33.083077-86.646154v86.646154h-25.206154V61.44zM127.606154 264.664615l59.864615-72.467692c12.603077-14.178462 29.932308-26.781538 47.261539-12.603077 4.726154 4.726154 7.876923 6.301538 14.178461 17.329231 1.575385 4.726154 3.150769 11.027692 0 18.904615 14.178462-9.452308 29.932308-6.301538 39.384616 3.15077 15.753846 14.178462 12.603077 31.507692-1.575385 48.836923l-63.015385 75.618461-96.098461-78.769231z m379.667692 541.932308c-165.415385 0-299.323077-133.907692-299.323077-299.323077s133.907692-299.323077 299.323077-299.323077 299.323077 133.907692 299.323077 299.323077-133.907692 299.323077-299.323077 299.323077zM786.116923 346.584615l-22.055385-28.356923 44.11077-66.166154-72.467693 31.507693-22.055384-28.356923 77.193846-99.249231 18.904615 23.630769-48.836923 63.015385 74.043077-31.507693 20.48 25.206154-47.261538 66.166154 72.467692-34.658461 18.904615 23.630769-113.427692 55.138461z" fill="#474747" p-id="3194"></path><path d="M507.273846 507.273846V226.855385s-115.003077-6.301538-195.347692 80.344615-80.344615 151.236923-85.070769 201.649231h280.418461zM507.273846 507.273846V787.692308s115.003077 6.301538 195.347692-80.344616 80.344615-151.236923 85.07077-201.64923H507.273846z" fill="#008CFF" p-id="3195"></path></svg>